<!--Abendiix CC0  - https://abendiix.com-->
<svg id="Layer_1" data-name="Layer 1" xmlns="http://www.w3.org/2000/svg" viewBox="0 0 1050 264"><polygon points="60 72 0 192 120 192 60 72"/><polygon points="210 132 270 72 150 72 150 192 270 192 210 132"/><polygon points="420 132 360 132 420 72 300 72 300 192 420 192 420 132"/><polyline points="570 192 450 192 450 72 510 132 510 72 570 72"/><polygon points="600 72 600 192 720 132 600 72"/><rect x="750" y="72" width="60" height="120"/><rect x="840" y="72" width="60" height="120"/><polygon points="930 72 1050 72 930 192 1050 192 930 72"/><rect y="240" width="1050" height="24"/><rect width="1050" height="24"/></svg>