<?xml version="1.0" encoding="UTF-8" standalone="no"?>
<!--Abendiix CC0  - https://abendiix.com-->
<svg
   version="1.1"
   width="20"
   height="20"
   shape-rendering="crispEdges"
   id="svg92"
   sodipodi:docname="fonts_logo.svg"
   inkscape:version="1.3.2 (091e20ef0f, 2023-11-25, custom)"
   xmlns:inkscape="http://www.inkscape.org/namespaces/inkscape"
   xmlns:sodipodi="http://sodipodi.sourceforge.net/DTD/sodipodi-0.dtd"
   xmlns="http://www.w3.org/2000/svg"
   xmlns:svg="http://www.w3.org/2000/svg">
  <defs
     id="defs92" />
  <sodipodi:namedview
     id="namedview92"
     pagecolor="#ffffff"
     bordercolor="#000000"
     borderopacity="0.25"
     inkscape:showpageshadow="2"
     inkscape:pageopacity="0.0"
     inkscape:pagecheckerboard="0"
     inkscape:deskcolor="#d1d1d1"
     inkscape:zoom="29.4"
     inkscape:cx="10"
     inkscape:cy="10"
     inkscape:window-width="1536"
     inkscape:window-height="792"
     inkscape:window-x="0"
     inkscape:window-y="0"
     inkscape:window-maximized="1"
     inkscape:current-layer="svg92" />
  <rect
     style="fill:#ffffff;stroke-width:0.442205;paint-order:markers stroke fill"
     id="rect93"
     width="20"
     height="20"
     x="0"
     y="0"
     inkscape:label="background" />
  <path
     d="m 12,8 v 1 h -1 v 1 1 1 1 1 h 1 v 1 h 1 1 1 v -1 h 1 v 1 h 1 1 V 14 13 12 11 10 9 8 h -1 -1 -1 -1 -1 z m 1,2 h 1 1 1 v 1 1 h -1 v 1 h -1 -1 v -1 -1 z"
     style=""
     id="path93"
     inkscape:label="a" />
  <path
     d="M 3,5 V 6 H 2 v 1 1 1 1 1 1 1 1 1 h 1 1 v -1 -1 h 1 1 1 1 v 1 1 h 1 1 V 14 13 12 11 10 9 8 7 6 H 9 V 5 H 8 7 6 5 4 Z m 1,2 h 1 1 1 1 v 1 1 1 1 H 7 6 5 4 V 10 9 8 Z"
     id="path92"
     inkscape:label="A" />
</svg>
