<?xml version="1.0" encoding="UTF-8" standalone="no"?>
<!-- Created with Inkscape (http://www.inkscape.org/) -->
<!--Abendiix CC0  - https://abendiix.com-->
<svg
   width="150"
   height="150"
   viewBox="0 0 39.687499 39.6875"
   version="1.1"
   id="svg1"
   inkscape:version="1.3.2 (091e20ef0f, 2023-11-25, custom)"
   sodipodi:docname="drawing.svg"
   xmlns:inkscape="http://www.inkscape.org/namespaces/inkscape"
   xmlns:sodipodi="http://sodipodi.sourceforge.net/DTD/sodipodi-0.dtd"
   xmlns="http://www.w3.org/2000/svg"
   xmlns:svg="http://www.w3.org/2000/svg">
  <sodipodi:namedview
     id="namedview1"
     pagecolor="#ffffff"
     bordercolor="#000000"
     borderopacity="0.25"
     inkscape:showpageshadow="2"
     inkscape:pageopacity="0.0"
     inkscape:pagecheckerboard="0"
     inkscape:deskcolor="#d1d1d1"
     inkscape:document-units="mm"
     inkscape:zoom="1.6001751"
     inkscape:cx="63.743025"
     inkscape:cy="93.114811"
     inkscape:window-width="1536"
     inkscape:window-height="792"
     inkscape:window-x="0"
     inkscape:window-y="0"
     inkscape:window-maximized="1"
     inkscape:current-layer="layer1" />
  <defs
     id="defs1" />
  <g
     inkscape:label="Layer 1"
     inkscape:groupmode="layer"
     id="layer1">
    <rect
       style="fill:#ffffff;fill-opacity:1;stroke:#fefefe;stroke-width:0;paint-order:markers stroke fill"
       id="rect39"
       width="39.6875"
       height="39.6875"
       x="-7.1054274e-15"
       y="0"
       inkscape:label="background" />
    <path
       d="m 23.812499,15.874977 v 2.6458 h 2.6458 2.6459 2.6458 v -2.6458 h -2.6458 -2.6459 z m 7.9375,2.6458 v 2.6459 h -2.6458 -2.6459 -2.6458 v 2.6458 h 2.6458 2.6459 2.6458 v 2.6458 h -2.6458 -2.6459 -2.6458 v 2.6459 h 2.6458 2.6459 2.6458 2.6458 v -2.6459 -2.6458 -2.6458 -2.6459 z m -7.9375,7.9375 v -2.6458 h -2.6458 v 2.6458 z"
       style="fill:#000000;fill-opacity:1;stroke:#fefefe;stroke-width:0;paint-order:markers stroke fill"
       id="path38"
       inkscape:label="a" />
    <path
       d="m 7.9374989,10.583277 v 2.6459 h 2.6458001 2.6459 2.6458 v -2.6459 h -2.6458 -2.6459 z m 7.9375001,2.6459 v 2.6458 2.6458 h -2.6458 -2.6459 -2.6458001 v -2.6458 -2.6458 h -2.6458 v 2.6458 2.6458 2.6459 2.6458 2.6458 2.6459 h 2.6458 v -2.6459 -2.6458 -2.6458 h 2.6458001 2.6459 2.6458 v 2.6458 2.6458 2.6459 h 2.6458 v -2.6459 -2.6458 -2.6458 -2.6459 -2.6458 -2.6458 z"
       style="fill:#000000;fill-opacity:1;stroke:#fefefe;stroke-width:0;paint-order:markers stroke fill"
       id="path39"
       inkscape:label="A" />
  </g>
</svg>
