<?xml version="1.0" encoding="UTF-8" standalone="no"?>
<!--Abendiix CC0  - https://abendiix.com-->

<svg
   version="1.1"
   width="20"
   height="20"
   shape-rendering="crispEdges"
   id="svg92"
   sodipodi:docname="favicon.svg"
   inkscape:version="1.3.2 (091e20ef0f, 2023-11-25, custom)"
   xmlns:inkscape="http://www.inkscape.org/namespaces/inkscape"
   xmlns:sodipodi="http://sodipodi.sourceforge.net/DTD/sodipodi-0.dtd"
   xmlns="http://www.w3.org/2000/svg"
   xmlns:svg="http://www.w3.org/2000/svg">
  <defs
     id="defs92">
    <inkscape:path-effect
       effect="fillet_chamfer"
       id="path-effect1"
       is_visible="true"
       lpeversion="1"
       nodesatellites_param="F,1,0,1,0,0.1,0,1 @ F,1,0,1,0,0.1,0,1 @ F,1,0,1,0,0.1,0,1 @ F,1,0,1,0,0.1,0,1"
       radius="10"
       unit="px"
       method="auto"
       mode="F"
       chamfer_steps="1"
       flexible="true"
       use_knot_distance="true"
       apply_no_radius="true"
       apply_with_radius="true"
       only_selected="false"
       hide_knots="false" />
  </defs>
  <sodipodi:namedview
     id="namedview92"
     pagecolor="#ffffff"
     bordercolor="#000000"
     borderopacity="0.25"
     inkscape:showpageshadow="2"
     inkscape:pageopacity="0.0"
     inkscape:pagecheckerboard="0"
     inkscape:deskcolor="#d1d1d1"
     inkscape:zoom="29.4"
     inkscape:cx="10"
     inkscape:cy="10"
     inkscape:window-width="1536"
     inkscape:window-height="792"
     inkscape:window-x="0"
     inkscape:window-y="0"
     inkscape:window-maximized="1"
     inkscape:current-layer="svg92" />
  <path
     style="fill:#ffffff;stroke-width:0.442205;paint-order:markers stroke fill"
     id="rect93"
     width="20"
     height="20"
     x="0"
     y="0"
     inkscape:label="background"
     inkscape:path-effect="#path-effect1"
     sodipodi:type="rect"
     d="m 2,0 h 16 a 2,2 45 0 1 2,2 v 16 a 2,2 135 0 1 -2,2 H 2 A 2,2 45 0 1 0,18 V 2 A 2,2 135 0 1 2,0 Z" />
  <path
     d="m 12,8 v 1 h -1 v 1 1 1 1 1 h 1 v 1 h 1 1 1 v -1 h 1 v 1 h 1 1 V 14 13 12 11 10 9 8 h -1 -1 -1 -1 -1 z m 1,2 h 1 1 1 v 1 1 h -1 v 1 h -1 -1 v -1 -1 z"
     style=""
     id="path93"
     inkscape:label="a" />
  <path
     d="M 3,5 V 6 H 2 v 1 1 1 1 1 1 1 1 1 h 1 1 v -1 -1 h 1 1 1 1 v 1 1 h 1 1 V 14 13 12 11 10 9 8 7 6 H 9 V 5 H 8 7 6 5 4 Z m 1,2 h 1 1 1 1 v 1 1 1 1 H 7 6 5 4 V 10 9 8 Z"
     id="path92"
     inkscape:label="A" />
</svg>
