<?xml version="1.0" encoding="UTF-8" standalone="no"?>
<!--Abendiix CC0  - https://abendiix.com-->
<svg
   version="1.1"
   width="15"
   height="15"
   shape-rendering="crispEdges"
   id="svg31"
   sodipodi:docname="fonts.svg"
   inkscape:version="1.3.2 (091e20ef0f, 2023-11-25, custom)"
   xmlns:inkscape="http://www.inkscape.org/namespaces/inkscape"
   xmlns:sodipodi="http://sodipodi.sourceforge.net/DTD/sodipodi-0.dtd"
   xmlns="http://www.w3.org/2000/svg"
   xmlns:svg="http://www.w3.org/2000/svg">
  <defs
     id="defs31" />
  <sodipodi:namedview
     id="namedview31"
     pagecolor="#ffffff"
     bordercolor="#000000"
     borderopacity="0.25"
     inkscape:showpageshadow="2"
     inkscape:pageopacity="0.0"
     inkscape:pagecheckerboard="0"
     inkscape:deskcolor="#d1d1d1"
     inkscape:zoom="39.2"
     inkscape:cx="7.5"
     inkscape:cy="7.5"
     inkscape:window-width="1536"
     inkscape:window-height="792"
     inkscape:window-x="0"
     inkscape:window-y="0"
     inkscape:window-maximized="1"
     inkscape:current-layer="svg31" />
  <rect
     style="fill:#ffffff;fill-opacity:1;stroke:#fefefe;stroke-width:0;paint-order:markers stroke fill"
     id="rect39"
     width="15"
     height="15"
     x="0"
     y="0"
     inkscape:label="background" />
  <path
     d="m 9,6 v 1 h 1 1 1 V 6 h -1 -1 z m 3,1 V 8 H 11 10 9 v 1 h 1 1 1 v 1 H 11 10 9 v 1 h 1 1 1 1 V 10 9 8 7 Z M 9,10 V 9 H 8 v 1 z"
     style="fill:#000000;stroke:#fefefe;stroke-width:0;paint-order:markers stroke fill;fill-opacity:1"
     id="path38"
     inkscape:label="a" />
  <path
     d="M 3,4 V 5 H 4 5 6 V 4 H 5 4 Z M 6,5 V 6 7 H 5 4 3 V 6 5 H 2 v 1 1 1 1 1 1 H 3 V 10 9 8 h 1 1 1 v 1 1 1 H 7 V 10 9 8 7 6 5 Z"
     style="fill:#000000;stroke:#fefefe;stroke-width:0;paint-order:markers stroke fill;fill-opacity:1"
     id="path39"
     inkscape:label="A" />
</svg>
